<svg xmlns="http://www.w3.org/2000/svg" xmlns:xlink="http://www.w3.org/1999/xlink" width="200" height="200" class="icon" p-id="1147" t="1593063764397" version="1.1" viewBox="0 0 1024 1024"><defs><style type="text/css"/></defs><path d="M512 64.73742c-247.019976 0-447.26258 200.242604-447.26258 447.26258s200.242604 447.26258 447.26258 447.26258S959.26258 759.019976 959.26258 512C959.388447 264.980024 759.145843 64.73742 512 64.73742z m0 849.749374c-104.061031 0.12382-198.617593-39.773865-270.03311-104.562451 42.023092-108.562555 146.585543-186.108698 270.03311-186.108698 123.449613 0 228.010017 77.419254 270.158976 185.983855-71.541383 64.912405-166.097946 104.687294-270.158976 104.687294zM377.797485 444.960141c0-74.16821 60.034305-134.204561 134.202515-134.204561s134.204561 60.036351 134.204561 134.204561c0 74.166163-60.036351 134.204561-134.204561 134.204561S377.797485 519.003508 377.797485 444.960141z m438.131619 330.568834c-39.524179-86.301552-113.693412-153.089677-205.496257-181.356464 48.402383-31.893384 80.548524-86.801948 80.548524-149.21237 0-98.809423-80.171947-178.981371-178.981371-178.981371s-178.979324 80.171947-178.979324 178.981371c0 62.411445 32.017204 117.320009 80.546477 149.337213-91.803869 28.266787-165.972079 95.055936-205.49421 181.356465-61.411675-70.666456-98.682533-162.595168-98.682534-263.529999 0-222.37774 180.230827-402.610614 402.612661-402.610614 222.379787 0 402.610614 180.230827 402.610614 402.610614-0.001023 100.809987-37.398772 192.739722-98.68458 263.405155z" p-id="1148"/></svg>