<svg xmlns="http://www.w3.org/2000/svg" xmlns:xlink="http://www.w3.org/1999/xlink" width="200" height="200" class="icon" p-id="1900" t="1593063779598" version="1.1" viewBox="0 0 1024 1024"><defs><style type="text/css"/></defs><path d="M375.893333 502.784a245.333333 245.333333 0 1 1 272.298667 0 415.061333 415.061333 0 0 1 137.344 79.786667l-42.112 48.213333A350.464 350.464 0 0 0 512 544 352 352 0 0 0 160 896h-64a416.170667 416.170667 0 0 1 279.893333-393.216zM512 480a181.333333 181.333333 0 1 0 0-362.666667 181.333333 181.333333 0 0 0 0 362.666667zM757.333333 810.666667v-74.666667h64V810.666667H896v64h-74.666667v74.666666h-64V874.666667H682.666667V810.666667h74.666666z" p-id="1901"/></svg>